# xmcd
#
# Track frame offsets:
#	150
#	10605
#	24192
#	38371
#	51415
#	63966
#	78404
#	91073
#	101351
#	114644
#	126531
#	140147
#	151371
#	165110
#	174839
#	188199
#	200845
#	213741
#
# Disc length: 2993
#
# Revision: 4
# Processed by: cddbd v1.5.1PL0 Copyright (c) Steve Scherf et al.
# Submitted via: VisiTrax 2.9.9.202 - For more info visit www.synapsa.com
# Normalized: r3:DSETVAR1
#
DISCID=e70baf12
DTITLE=Various Artist - Blues collection vol.5 Hard Luck Blues - CD 2
DYEAR=2001
DGENRE=Blues
TTITLE0=John Lee Hooker - Baby Please Don't Go and I Was Beggin' My Baby
TTITLE1=Johnny Mercer and Cootie Williams - He Should Flip'd When He Flop'd
TTITLE2=Amos Milburn - Train Whistle Blues
TTITLE3=Smokey Hogg - Up Todayn Down Tomorrow
TTITLE4=Julia Lee and Her Boy Friends - You Ain't Got It No More
TTITLE5=Floyd Dixon - Time And Place
TTITLE6=Sonny Terry - Airplane Blues
TTITLE7=Tommy Douglas - Goosed
TTITLE8=Amos Milburn - Bad Bad Whiskey
TTITLE9=Walter Brown - Work Don't Bother Me
TTITLE10=John Lee Hooker - I Don't Be Welcome Here
TTITLE11=Smokey Hogg - I Gotta Ride
TTITLE12=T Bone Walker - Too Lazy
TTITLE13=T Bone Walker - Look Me In The Eye
TTITLE14=Walter Brown - Inform Me Baby
TTITLE15=Floyd Dixon - Hamp's Gumbo
TTITLE16=Babs Three Bips and Bop - Oo pa pa de
TTITLE17=Tommy Douglas - Kickapoo
EXTD=
EXTT0=
EXTT1=
EXTT2=
EXTT3=
EXTT4=
EXTT5=
EXTT6=
EXTT7=
EXTT8=
EXTT9=
EXTT10=
EXTT11=
EXTT12=
EXTT13=
EXTT14=
EXTT15=
EXTT16=
EXTT17=
PLAYORDER=
